<svg width="486" height="47" viewBox="0 0 486 47" fill="none" xmlns="http://www.w3.org/2000/svg">
<g clip-path="url(#clip0_272_203)">
<path d="M42.5505 10.1258C41.8594 10.1258 41.48 10.1258 40.7889 10.2228L40.8566 7.39699C46.643 6.91217 53.1068 6.91217 57.267 6.91217C64.6524 6.91217 70.1812 10.389 70.1812 14.8217C70.1812 18.5894 66.5631 22.5373 61.0884 24.2965C67.4439 25.6817 71.7802 29.6572 71.7802 34.4777C71.7802 41.9994 62.3893 46.3628 53.8386 46.3628C50.5728 46.3628 47.8626 45.31 45.6673 43.7032C44.1902 45.3377 42.2659 46.3628 40.2604 46.3628C38.5258 46.3074 37.0623 45.7533 36.2764 44.4097L36.3441 43.9248C36.8726 43.9248 37.374 43.4816 37.4418 42.9552L42.5505 10.1258ZM52.4022 42.4842C57.9988 42.4842 61.495 37.539 61.495 33.1895C61.495 29.2417 58.3918 26.2081 54.0825 26.2081H52.7545L53.2017 23.2853L54.8956 23.313C59.6791 23.0221 62.7552 18.3955 62.7552 15.1264C62.7552 12.1067 60.3296 9.8211 56.9418 9.8211H52.5783L48.1471 38.578C47.9845 39.603 47.6457 40.6003 47.1986 41.5007C48.7163 42.1795 50.4779 42.4842 52.4022 42.4842Z" fill="white"/>
<path d="M99.8173 7.72943C107.758 9.68257 111.688 17.883 109.561 26.9007C106.579 39.5891 95.4268 47.7203 84.6537 45.0607C76.7127 43.1076 72.7829 34.9072 74.9104 25.8895C77.8917 13.201 89.0442 5.06984 99.8173 7.72943ZM88.4615 42.4427C91.0362 43.0799 95.481 41.4592 98.0286 30.6407C99.858 22.8697 100.725 11.5942 95.9824 10.4306C93.4077 9.79339 88.9629 11.4141 86.4153 22.2325C84.5724 29.9897 83.7051 41.2791 88.4615 42.4427Z" fill="white"/>
<path d="M111.742 37.6914L115.903 10.8046C115.903 10.1674 115.659 9.83494 115.089 9.83494L115.184 9.35012C116.905 7.49395 119.521 6.5243 121.824 6.42734C124.236 6.42734 125.903 8.15884 125.903 10.4998C125.903 10.763 125.876 11.0401 125.835 11.3033L121.973 36.2369C121.879 36.9157 121.784 37.5252 121.784 37.8438C121.784 40.3787 123.41 41.9855 126.025 41.9855C130.118 41.9855 134.169 37.4144 135.05 31.7627L138.248 11.1093C138.248 9.89035 137.706 9.15619 136.649 9.15619L137.029 6.71823C138.628 6.91216 141.582 7.20305 143.438 7.20305C144.563 7.20305 147.775 6.93986 148.94 6.71823L143.872 39.4229C143.75 40.1986 143.655 40.7666 143.655 40.8635C143.655 41.6115 144.197 42.1795 144.97 42.1795C145.254 42.1795 145.471 42.1241 145.918 41.9578L146.365 42.2072L147.029 44.2296L146.785 44.7144C143.98 45.7394 141.189 46.3766 138.492 46.3766C135.633 46.3766 133.614 44.2573 133.614 41.4592C133.614 40.8081 133.682 40.1709 134.047 38.1762C130.998 43.0244 125.686 46.3766 120.117 46.3766C114.832 46.3766 111.539 43.7171 111.539 39.603C111.553 39.1736 111.62 38.4533 111.742 37.6914Z" fill="white"/>
<path d="M164.241 11.2479C163.075 11.6634 161.815 11.982 160.501 11.982H158.306C154.593 11.982 151.367 14.9741 150.785 18.8665H149.741C150.934 11.1786 155.053 6.91217 159.241 6.91217H181.112C184.852 6.91217 188.064 3.89243 188.66 0H189.703C188.511 7.68789 184.391 11.982 180.123 11.982H178.212C175.637 11.982 173.374 10.763 172.114 9.93192L171.802 10.1536C172.846 11.4141 173.537 13.0486 173.537 15.0987C173.537 15.5836 173.537 15.9714 173.347 17.1488L169.566 41.5007C169.133 44.2296 166.233 46.3767 163.563 46.3767C161.3 46.2797 159.444 45.3101 158.306 43.4539L158.373 42.9691C158.942 42.9691 159.376 42.5812 159.471 41.9994L164.241 11.2479Z" fill="white"/>
<path d="M254.598 16.5116C254.598 13.6166 257.362 11.7604 259.788 11.7604C261.048 11.7604 262.498 12.2175 263.975 12.9794L268 4.7928L265.601 3.4353C264.477 5.69319 262.674 7.28617 260.438 7.28617C259.124 7.28617 257.931 6.92602 256.549 6.92602C250.79 6.92602 244.733 11.1647 244.733 17.3012C244.733 21.6092 247.687 25.3354 250.099 28.1058C251.359 29.5603 254.408 33.1202 254.408 36.1123V36.1261C254.408 37.2481 254.002 38.3702 253.324 39.2428C249.354 44.3681 240.139 45.4209 237.835 44.3958C236.29 43.7171 236.006 42.4011 236.114 40.6696C236.114 40.5726 236.209 40.0186 236.331 39.229L241.399 6.52431C240.234 6.74594 237.022 7.00913 235.897 7.00913C234.041 7.00913 231.087 6.71824 229.488 6.52431L229.108 8.96227C230.152 8.96227 230.707 9.69643 230.707 10.9154L227.509 31.5688C226.628 37.2204 222.577 41.7916 218.484 41.7916C215.869 41.7916 214.243 40.1848 214.243 37.6499C214.243 37.3313 214.338 36.7218 214.432 36.043L218.294 11.1093C218.349 10.8461 218.362 10.5691 218.362 10.3059C218.362 7.96492 216.695 6.23342 214.283 6.23342C211.966 6.33038 209.351 7.30002 207.643 9.1562L207.548 9.64102C208.118 9.64102 208.362 9.98732 208.362 10.6107L204.188 37.4975C204.066 38.2455 203.998 38.9797 203.998 39.3952C203.998 43.5093 207.291 46.1689 212.576 46.1689C218.145 46.1689 223.457 42.8028 226.506 37.9685C226.154 39.9632 226.073 40.6003 226.073 41.2514C226.073 44.0495 228.146 45.6286 230.951 46.1689C233.648 46.6814 247.876 47.3878 253.866 46.1412C260.181 45.1438 264.639 40.7527 264.639 35.3781C264.639 31.0424 261.536 27.2193 259.083 24.5458C257.647 22.9667 254.598 19.476 254.598 16.5116Z" fill="white"/>
<path d="M37.0622 42.0271C36.2898 43.7725 33.6203 44.6451 30.6119 44.9914L35.1651 15.5974C35.2871 14.8217 35.3277 14.2815 35.3277 13.9352C35.3277 9.86265 31.6283 6.71823 26.533 6.71823C14.188 10.4444 3.55039 18.3262 2.00556 28.369L0.149062 40.3649C0.0542044 41.0021 0 41.4315 0 41.6808C0 44.6728 2.85928 47 6.74845 47C9.20119 47 11.4913 46.626 13.5917 44.7975L13.402 44.2434C13.1852 44.2711 12.9684 44.2434 12.7516 44.2434C10.4343 44.2434 8.94372 42.1241 8.94372 39.9493C8.94372 39.6861 9.01148 39.1182 9.10634 38.5087L10.4885 29.2278L10.9222 26.9007C12.2366 18.4371 18.1991 11.2479 26.3027 8.1727L23.0369 29.2417L21.2752 40.6419C20.828 43.5093 22.82 46.1689 25.6387 46.5429C25.8419 46.5706 26.0181 46.5844 26.1807 46.6121C31.2217 47.1801 38.1328 47 41.1682 46.4182C44.4747 45.781 46.941 44.5482 47.3746 41.8193L47.9844 39.3398C45.3284 35.9876 42.1032 35.1288 39.1356 32.0813C39.1356 32.0536 38.0515 39.7969 37.0622 42.0271Z" fill="white"/>
<path d="M18.0365 22.1217L18.958 24.8921C19.4459 26.3743 20.3402 27.6764 21.5327 28.6599L23.7687 30.4883L21.0584 31.4303C19.6085 31.929 18.3347 32.8432 17.3725 34.0622L15.5838 36.3478L14.6623 33.5773C14.1745 32.0952 13.2801 30.7931 12.0876 29.8096L9.86523 27.9811L12.5755 27.0392C14.0254 26.5405 15.2992 25.6263 16.2614 24.4073L18.0365 22.1217Z" fill="white"/>
</g>
<path d="M278 26H486" stroke="white"/>
<defs>
<clipPath id="clip0_272_203">
<rect width="268" height="47" fill="white"/>
</clipPath>
</defs>
</svg>
