<svg width="423" height="66" viewBox="0 0 423 66" fill="none" xmlns="http://www.w3.org/2000/svg">
<g clip-path="url(#clip0_279_204)">
<path d="M34.809 6.8533C35.7811 6.8533 36.6167 6.94972 37.4041 7.04613C38.095 7.14254 38.7619 7.21485 39.4287 7.21485C41.2365 7.21485 42.7871 6.548 44.3779 3.45477L46.7802 4.71617L41.2365 15.908L38.8583 14.5984L39.6698 12.9835C37.621 11.9792 35.8374 11.3204 33.3146 11.3204C26.0274 11.3204 24.1956 24.2477 24.1956 29.4861C24.1956 36.7732 27.0799 41.5296 31.5551 41.5296C34.5037 41.5296 37.9584 40.0031 40.2 37.9543L41.3891 39.2639C37.7978 42.6705 33.1539 45.3379 27.8673 45.3379C19.7124 45.3298 14 38.6372 14 29.8316C14 17.8764 24.0429 6.8533 34.809 6.8533Z" fill="#ECF2F8"/>
<path d="M65.1951 6.28287C73.358 6.28287 79.0544 13.1603 79.0544 22.2311C79.0544 34.9896 70.08 45.3218 59.0087 45.3218C50.8458 45.3218 45.1494 38.4444 45.1494 29.3736C45.1494 16.6151 54.1238 6.28287 65.1951 6.28287ZM62.1019 41.9474C64.7452 41.9474 68.6981 39.3764 68.6981 28.4979C68.6981 20.6885 66.9627 9.76174 62.0778 9.76174C59.4345 9.76174 55.4816 12.3327 55.4816 23.2113C55.4816 31.0206 57.217 41.9474 62.1019 41.9474Z" fill="#ECF2F8"/>
<path d="M85.5538 14.1887C86.317 9.4484 90.527 6.28287 95.3878 6.28287C100.482 6.28287 104.386 9.49661 105.72 14.1164C106.29 16.0928 107.174 17.8041 108.789 17.8041C110.404 17.8041 111.858 16.1169 113.007 14.1405C115.819 9.49661 120.744 6.28287 125.862 6.28287C130.241 6.28287 133.294 8.85386 133.294 12.855C133.294 13.2808 133.198 14.0441 133.077 14.7591L128.907 41.0395C128.907 41.6822 129.148 41.9956 129.719 41.9956L129.646 42.4696C127.935 44.2773 125.79 45.2334 123.484 45.3298C121.033 45.3298 118.937 43.5703 118.937 41.2082C118.937 40.9913 119.009 40.5896 119.105 39.995L122.673 17.1373C122.817 16.2535 122.889 15.7072 122.889 15.3054C122.889 12.9996 121.724 11.5213 119.772 11.5213C116.341 11.5213 112.919 15.7795 112.083 21.042L108.42 44.1809L107.994 44.5585C106.829 44.3657 105.824 44.2693 104.611 44.2693C103.398 44.2693 102.37 44.3657 101.132 44.5585L100.795 44.1809L104.459 21.042C104.579 20.2546 104.627 19.4913 104.627 18.7843C104.627 14.6145 102.675 11.5213 99.7666 11.5213C97.4848 11.5213 95.6208 13.5218 95.1468 16.5668L91.3867 40.5655C90.9609 43.2329 88.0525 45.3298 85.3851 45.3298C83.1274 45.2334 81.2634 44.2854 80.1226 42.4696L80.1949 41.9956C80.7653 41.9956 81.1911 41.618 81.2875 41.0395L85.5457 14.1806L85.5538 14.1887Z" fill="#ECF2F8"/>
<path d="M141.176 10.5732C141.176 10.0028 140.935 9.61712 140.364 9.61712L140.461 9.1431C142.148 7.31126 144.791 6.35518 147.105 6.28287C149.483 6.28287 151.155 8.04239 151.155 10.3081C151.155 10.7098 151.058 11.4972 150.753 13.2808C153.276 9.09489 157.253 6.28287 161.302 6.28287C167.97 6.28287 172.542 10.9026 172.542 18.0934C172.542 27.8069 165.375 35.6163 156.642 35.6163C153.211 35.6163 150.239 33.8327 147.949 30.9724L145.828 44.3737C144.141 45.0165 142.445 45.3298 140.734 45.3298C139.023 45.3298 137.352 44.9763 135.833 44.3737L141.192 10.5652L141.176 10.5732ZM155.148 32.0249C159.671 32.0249 162.692 24.095 162.692 17.2899C162.692 12.8871 161.262 10.051 158.787 10.051C154.641 10.051 150.552 14.5743 149.668 20.0779L148.334 28.4577C149.998 30.7234 152.263 32.033 155.148 32.033V32.0249Z" fill="#ECF2F8"/>
<path d="M185.445 24.0227C180.062 22.5926 177.306 19.1459 177.306 15.908C177.306 10.3402 184.899 6.76493 192.523 6.76493C193.407 6.76493 194.452 6.86134 195.432 6.95775C196.34 7.05416 197.191 7.12647 197.858 7.12647C200.405 7.12647 202.574 5.69636 203.763 3.36639L206.142 4.7001L201.241 14.4136L200.574 14.2931C199.409 11.1999 196.404 9.60105 192.572 9.60105C189.069 9.60105 185.807 12.0756 185.807 15.908C185.807 19.3387 188.329 22.2873 191.856 22.2873H203.185L201.474 26.0956H193.287C188.811 26.0956 184.047 29.3575 184.047 34.2344C184.047 38.6372 187.807 41.5457 192.073 41.5457C195.665 41.5457 198.887 40.453 201.433 37.882L202.839 39.2639C199.481 42.6705 195.006 45.3379 189.719 45.3379C181.219 45.3379 173.289 41.385 173.289 35.4797C173.289 30.8359 177.981 25.9349 185.453 24.0308L185.445 24.0227Z" fill="#ECF2F8"/>
<path d="M220.828 10.999C219.663 11.4007 218.402 11.7141 217.092 11.7141H214.899C211.187 11.7141 207.973 14.6386 207.379 18.4549H206.334C207.524 10.9348 211.645 6.76493 215.831 6.76493H237.685C241.421 6.76493 244.634 3.81632 245.229 0H246.273C245.084 7.52016 240.963 11.7141 236.704 11.7141H234.8C232.229 11.7141 229.964 10.525 228.702 9.71353L228.389 9.93046C229.433 11.1678 230.124 12.7666 230.124 14.7671C230.124 15.2412 230.124 15.6268 229.931 16.7677L226.147 40.5735C225.721 43.2409 222.813 45.3379 220.146 45.3379C217.88 45.2415 216.024 44.2934 214.883 42.4776L214.955 42.0036C215.526 42.0036 215.952 41.626 216.048 41.0475L220.812 10.999H220.828Z" fill="#ECF2F8"/>
<path d="M245.598 45.3298C243.887 45.3298 242.216 44.9763 240.697 44.3738L246.008 10.8544C246.008 9.71355 245.462 8.95028 244.409 8.95028L244.787 6.57211C246.386 6.76494 249.623 7.04614 251.479 7.04614C252.596 7.04614 255.529 6.78101 256.694 6.57211L250.692 44.3818C249.005 45.0245 247.31 45.3379 245.598 45.3379V45.3298Z" fill="#ECF2F8"/>
<path d="M273.405 10.999C272.24 11.4007 270.979 11.7141 269.669 11.7141H267.476C263.764 11.7141 260.55 14.6386 259.956 18.4549H258.911C260.1 10.9348 264.222 6.76493 268.408 6.76493H290.261C293.997 6.76493 297.211 3.81632 297.805 0H298.85C297.661 7.52016 293.539 11.7141 289.281 11.7141H287.377C284.806 11.7141 282.54 10.525 281.279 9.71353L280.965 9.93046C282.01 11.1678 282.701 12.7666 282.701 14.7671C282.701 15.2412 282.701 15.6268 282.508 16.7677L278.724 40.5735C278.298 43.2409 275.39 45.3379 272.722 45.3379C270.457 45.2415 268.601 44.2934 267.46 42.4776L267.532 42.0036C268.102 42.0036 268.528 41.626 268.625 41.0475L273.389 10.999H273.405Z" fill="#ECF2F8"/>
<path d="M298.175 45.3298C296.464 45.3298 294.793 44.9763 293.274 44.3738L298.585 10.8544C298.585 9.71355 298.039 8.95028 296.986 8.95028L297.364 6.57211C298.963 6.76494 302.201 7.04614 304.057 7.04614C305.173 7.04614 308.106 6.78101 309.271 6.57211L303.269 44.3818C301.582 45.0245 299.887 45.3379 298.175 45.3379V45.3298Z" fill="#ECF2F8"/>
<path d="M331.695 6.28287C339.858 6.28287 345.554 13.1603 345.554 22.2311C345.554 34.9896 336.58 45.3218 325.508 45.3218C317.345 45.3218 311.649 38.4444 311.649 29.3736C311.649 16.6151 320.623 6.28287 331.695 6.28287ZM328.601 41.9474C331.245 41.9474 335.198 39.3764 335.198 28.4979C335.198 20.6885 333.462 9.76174 328.577 9.76174C325.934 9.76174 321.981 12.3327 321.981 23.2113C321.981 31.0206 323.717 41.9474 328.601 41.9474Z" fill="#ECF2F8"/>
<path d="M353.01 10.5732C353.01 10.0028 352.72 9.61712 352.198 9.61712L352.295 9.1431C353.982 7.31126 356.625 6.35518 358.939 6.28287C361.317 6.28287 362.988 8.04239 362.988 10.3081C362.988 10.5491 362.988 10.7821 362.94 11.0472L362.37 14.6627C365.511 9.71354 371.063 6.28287 376.848 6.28287C381.515 6.28287 384.922 9.25558 384.922 13.1121C384.922 13.4656 384.874 13.8271 384.826 14.1806L380.567 41.0395C380.567 41.6822 380.808 41.9956 381.379 41.9956L381.307 42.4696C379.595 44.2773 377.45 45.2334 375.144 45.3298C372.694 45.3298 370.597 43.5703 370.597 41.2082C370.597 40.9913 370.669 40.5896 370.765 39.995L374.598 15.6188C374.67 15.2412 374.694 14.8796 374.694 14.5261C374.694 12.1238 373.288 10.5732 370.934 10.5732C366.58 10.5732 362.313 15.2653 361.389 21.0259L358.296 40.5735C357.87 43.2409 355.436 45.3379 352.777 45.3379C350.519 45.2415 348.181 44.2934 347.04 42.4776L347.112 42.0036C347.683 42.0036 348.109 41.626 348.205 41.0475L353.042 10.5732H353.01Z" fill="#ECF2F8"/>
<path d="M388.706 41.2323C394.017 41.2323 397.946 38.8782 397.946 35.3029C397.946 32.3784 394.901 28.8996 393.64 27.4694C391.237 24.7538 388.281 21.1143 388.281 16.8962C388.281 10.8946 394.33 6.75688 400.091 6.75688C401.473 6.75688 402.662 7.11039 403.972 7.11039C406.213 7.11039 408.021 5.55976 409.138 3.35031L411.54 4.68401L407.515 12.6862C406.037 11.9471 404.59 11.4971 403.321 11.4971C400.895 11.4971 398.131 13.3049 398.131 16.141C398.131 18.9771 401.176 22.448 402.63 23.9986C405.08 26.6178 408.174 30.3538 408.174 34.5959C408.174 40.5976 402.389 45.3298 394.676 45.3298C391.912 45.3298 387.292 43.6185 386.127 41.8027L386.224 40.9431C386.963 41.1359 387.983 41.2323 388.698 41.2323H388.706Z" fill="#ECF2F8"/>
</g>
<path d="M417 55L417.377 55.6859C418.401 57.5582 419.942 59.099 421.814 60.1229L422.5 60.5L421.814 60.8771C419.942 61.901 418.401 63.4418 417.377 65.3141L417 66L416.623 65.3141C415.599 63.4418 414.058 61.901 412.186 60.8771L411.5 60.5L412.186 60.1229C414.058 59.099 415.599 57.5582 416.623 55.6859L417 55Z" fill="white"/>
<path d="M5.5 55L5.87707 55.6859C6.901 57.5582 8.44178 59.099 10.3141 60.1229L11 60.5L10.3141 60.8771C8.44178 61.901 6.901 63.4418 5.87707 65.3141L5.5 66L5.12293 65.3141C4.099 63.4418 2.55822 61.901 0.685879 60.8771L0 60.5L0.685879 60.1229C2.55822 59.099 4.099 57.5582 5.12293 55.6859L5.5 55Z" fill="white"/>
<path d="M19 60L403 60" stroke="white"/>
<defs>
<clipPath id="clip0_279_204">
<rect width="397.54" height="45.3298" fill="white" transform="translate(14)"/>
</clipPath>
</defs>
</svg>
